<svg width="258" height="95" viewBox="0 0 258 95" fill="none" xmlns="http://www.w3.org/2000/svg">
<path d="M164.99 43.641H147.041V61.8674H164.99V43.641Z" fill="#ED8573"/>
<path d="M139.853 43.641H121.905V61.8674H139.853V43.641Z" fill="#F0975E"/>
<path d="M164.99 18.2264H147.041V36.4529H164.99V18.2264Z" fill="#F0975E"/>
<path d="M139.853 18.2264H121.905V36.4529H139.853V18.2264Z" fill="#F0975E"/>
<path fill-rule="evenodd" clip-rule="evenodd" d="M121.905 0H114.731V11.053H103.957V18.2265H114.731V36.4529H103.957V43.6264H114.731V61.8528H121.905V43.641H139.853V61.8675H147.027V43.641H164.975V36.4675H147.027V18.2265H164.975V11.053H147.027V0H139.853V11.053H121.905V0ZM139.853 36.4529V18.2265H121.905V36.4529H139.853Z" fill="#27181D"/>
<path d="M8.44712 61.5893L0 26.2344H7.30522L12.6341 50.5217L19.1048 26.2344H27.5959L33.7885 50.9316L39.2198 26.2344H46.4079L37.829 61.5893H30.2603L23.204 35.15L16.1769 61.5893H8.44712Z" fill="#27181D"/>
<path d="M92.9914 61.5893H85.2324L82.1434 53.5521H68.0014L65.0881 61.5893H57.5194L71.2954 26.2344H78.8348L92.9914 61.5893ZM79.845 47.5937L74.9699 34.4765L70.1974 47.5937H79.845Z" fill="#27181D"/>
<path d="M188.94 61.5894V26.5272H196.084V55.631H213.828V61.5894H188.94Z" fill="#27181D"/>
<path d="M77.9419 91.4251L79.9036 91.2348C80.0207 91.8936 80.255 92.3767 80.621 92.6841C80.987 92.9915 81.4701 93.1526 82.0849 93.1526C82.7291 93.1526 83.2268 93.0208 83.5489 92.7427C83.871 92.4645 84.0467 92.1425 84.0467 91.7765C84.0467 91.5422 83.9734 91.3373 83.8417 91.1762C83.7099 91.0152 83.4611 90.8688 83.1244 90.7517C82.8901 90.6638 82.3484 90.5321 81.514 90.3125C80.4306 90.049 79.684 89.7123 79.2448 89.3316C78.63 88.79 78.3225 88.1165 78.3225 87.326C78.3225 86.8136 78.4689 86.3451 78.7471 85.9059C79.0252 85.4667 79.4498 85.13 79.9915 84.8958C80.5331 84.6616 81.1919 84.5444 81.9532 84.5444C83.1975 84.5444 84.1491 84.8226 84.7786 85.3643C85.4081 85.9206 85.7449 86.6525 85.7741 87.5602L83.7685 87.6481C83.6807 87.1357 83.4903 86.7697 83.2122 86.5354C82.934 86.3158 82.5095 86.1987 81.9385 86.1987C81.3529 86.1987 80.8991 86.3158 80.5624 86.5647C80.3428 86.7258 80.2403 86.9307 80.2403 87.1796C80.2403 87.4138 80.3428 87.6188 80.5331 87.7798C80.782 87.9994 81.3969 88.219 82.3777 88.4532C83.3586 88.6875 84.0759 88.9217 84.5444 89.1706C85.0129 89.4195 85.3789 89.7562 85.6424 90.1807C85.9059 90.6053 86.0376 91.1323 86.0376 91.7618C86.0376 92.3328 85.8766 92.8744 85.5692 93.3722C85.2471 93.8699 84.8079 94.2359 84.2223 94.4848C83.6367 94.7337 82.9194 94.8508 82.0557 94.8508C80.7966 94.8508 79.8304 94.558 79.157 93.9724C78.4689 93.3868 78.0737 92.5377 77.9419 91.4251Z" fill="#27181D"/>
<path d="M101.043 94.6751V86.4037H98.0862V84.7201H106.006V86.4037H103.064V94.6751H101.043Z" fill="#27181D"/>
<path d="M118.362 84.7054H120.368V90.1075C120.368 90.9566 120.397 91.5129 120.441 91.7764C120.529 92.1863 120.734 92.5084 121.056 92.7573C121.378 93.0062 121.817 93.1233 122.388 93.1233C122.959 93.1233 123.384 93.0062 123.676 92.7719C123.969 92.5377 124.145 92.2449 124.203 91.9082C124.262 91.5715 124.291 91.0005 124.291 90.21V84.6908H126.297V89.9172C126.297 91.1176 126.238 91.9521 126.136 92.4498C126.033 92.9476 125.828 93.3575 125.536 93.6942C125.243 94.0309 124.848 94.3091 124.364 94.4994C123.881 94.7044 123.237 94.8068 122.447 94.8068C121.495 94.8068 120.778 94.6897 120.28 94.4848C119.782 94.2652 119.402 93.987 119.109 93.621C118.816 93.2697 118.64 92.9037 118.538 92.523C118.406 91.9521 118.348 91.103 118.348 89.9904V84.7054H118.362Z" fill="#27181D"/>
<path d="M139.502 84.7054H143.177C144.011 84.7054 144.64 84.764 145.08 84.8958C145.665 85.0714 146.163 85.3789 146.588 85.8181C146.997 86.2573 147.32 86.7989 147.539 87.4284C147.759 88.0579 147.861 88.8485 147.861 89.7854C147.861 90.6053 147.759 91.308 147.554 91.9082C147.305 92.6255 146.954 93.2258 146.485 93.665C146.134 94.0017 145.665 94.2652 145.065 94.4555C144.626 94.6019 144.026 94.6605 143.279 94.6605H139.502V84.7054ZM141.508 86.389V92.9915H143.001C143.572 92.9915 143.967 92.9622 144.216 92.8891C144.538 92.8012 144.816 92.6695 145.036 92.4791C145.255 92.2888 145.431 91.9667 145.563 91.5129C145.695 91.0737 145.768 90.4589 145.768 89.6829C145.768 88.907 145.695 88.3215 145.563 87.9115C145.431 87.5016 145.241 87.1796 144.992 86.9453C144.743 86.7111 144.436 86.5647 144.055 86.4769C143.777 86.4183 143.22 86.3744 142.401 86.3744H141.508V86.389Z" fill="#27181D"/>
<path d="M160.569 94.6751V84.7054H162.574V94.6751H160.569Z" fill="#27181D"/>
<path d="M175.164 89.7415C175.164 88.7314 175.311 87.8823 175.618 87.1942C175.838 86.6818 176.16 86.228 176.54 85.8327C176.936 85.4375 177.36 85.13 177.829 84.9397C178.458 84.6762 179.161 84.5444 179.981 84.5444C181.445 84.5444 182.616 84.9983 183.509 85.9059C184.387 86.8136 184.827 88.0872 184.827 89.6976C184.827 91.308 184.387 92.567 183.509 93.4747C182.631 94.3823 181.459 94.8362 180.01 94.8362C178.531 94.8362 177.346 94.3823 176.467 93.4747C175.589 92.5816 175.164 91.3373 175.164 89.7415ZM177.229 89.683C177.229 90.8102 177.492 91.6593 178.004 92.2449C178.531 92.8305 179.19 93.1233 179.995 93.1233C180.801 93.1233 181.459 92.8305 181.972 92.2596C182.484 91.6886 182.748 90.8102 182.748 89.6683C182.748 88.5264 182.499 87.6773 182.001 87.1064C181.503 86.5501 180.83 86.2719 180.01 86.2719C179.176 86.2719 178.517 86.5501 178.004 87.121C177.492 87.692 177.229 88.5411 177.229 89.683Z" fill="#27181D"/>
<path d="M230.942 61.5893V26.2344H257.147V32.2074H238.071V40.0396H255.829V45.998H238.071V55.6309H257.82V61.5893H230.942Z" fill="#27181D"/>
</svg>
