<svg width="1202" height="646" viewBox="0 0 1202 646" fill="none" xmlns="http://www.w3.org/2000/svg">
<path d="M301.146 238.882C328.288 243.052 353.671 224.428 357.841 197.286C362.01 170.143 343.386 144.76 316.244 140.591C289.101 136.422 263.718 155.045 259.549 182.188C255.38 209.33 274.004 234.713 301.146 238.882Z" fill="white"/>
<path d="M302.04 233.062C325.968 236.738 348.345 220.32 352.021 196.392C355.696 172.463 339.278 150.086 315.35 146.411C291.422 142.735 269.045 159.153 265.369 183.082C261.694 207.01 278.112 229.387 302.04 233.062Z" fill="#361E0D"/>
<path d="M375.549 198.351L354.209 195.073L352.52 206.066L373.86 209.344L375.549 198.351Z" fill="white"/>
<path d="M209.375 217.201C189.425 211.839 168.905 223.664 163.542 243.614C158.18 263.564 170.005 284.083 189.955 289.446C209.905 294.809 230.424 282.984 235.787 263.034C241.15 243.084 229.325 222.564 209.375 217.201Z" fill="white"/>
<path d="M208.225 221.479C190.638 216.751 172.548 227.176 167.82 244.763C163.093 262.351 173.518 280.441 191.105 285.168C208.692 289.896 226.782 279.471 231.51 261.884C236.238 244.296 225.813 226.207 208.225 221.479Z" fill="#361E0D" fill-opacity="0.2"/>
<path d="M150.39 241.353L166.075 245.569L168.247 237.489L152.562 233.273L150.39 241.353Z" fill="white"/>
<path d="M834.198 246.81L367.375 294.718C364.606 295.002 362.551 297.088 362.786 299.377L380.32 470.233C380.555 472.522 382.99 474.147 385.76 473.862L852.583 425.955C855.352 425.671 857.407 423.585 857.172 421.296L839.638 250.44C839.403 248.151 836.968 246.526 834.198 246.81Z" fill="#B3B3B3" stroke="#333333" stroke-width="0.5" stroke-linecap="round" stroke-linejoin="round"/>
<path d="M424.235 304.972L385.635 308.933C384.323 309.068 383.35 310.056 383.461 311.14L386.326 339.058C386.438 340.143 387.591 340.912 388.903 340.778L427.503 336.816C428.815 336.682 429.788 335.694 429.677 334.61L426.811 306.691C426.7 305.607 425.547 304.837 424.235 304.972Z" fill="#4D4D4D" stroke="#333333" stroke-width="0.5" stroke-linecap="round" stroke-linejoin="round"/>
<path d="M477.226 299.534L438.626 303.496C437.314 303.63 436.341 304.618 436.452 305.702L439.318 333.621C439.429 334.705 440.582 335.475 441.894 335.34L480.494 331.379C481.806 331.244 482.779 330.256 482.668 329.172L479.803 301.254C479.691 300.169 478.538 299.4 477.226 299.534Z" fill="#4D4D4D" stroke="#333333" stroke-width="0.5" stroke-linecap="round" stroke-linejoin="round"/>
<path d="M530.2 294.097L491.6 298.058C490.288 298.193 489.315 299.181 489.426 300.265L492.291 328.183C492.402 329.268 493.556 330.037 494.868 329.903L533.468 325.941C534.779 325.807 535.753 324.819 535.641 323.735L532.776 295.816C532.665 294.732 531.511 293.962 530.2 294.097Z" fill="#4D4D4D" stroke="#333333" stroke-width="0.5" stroke-linecap="round" stroke-linejoin="round"/>
<path d="M583.191 288.66L544.591 292.621C543.28 292.756 542.307 293.744 542.418 294.828L545.283 322.747C545.394 323.831 546.548 324.601 547.859 324.466L586.459 320.505C587.771 320.37 588.744 319.382 588.633 318.298L585.768 290.379C585.657 289.295 584.503 288.526 583.191 288.66Z" fill="#4D4D4D" stroke="#333333" stroke-width="0.5" stroke-linecap="round" stroke-linejoin="round"/>
<path d="M636.165 283.223L597.565 287.184C596.253 287.319 595.28 288.307 595.391 289.391L598.257 317.309C598.368 318.394 599.521 319.163 600.833 319.029L639.433 315.067C640.745 314.933 641.718 313.945 641.607 312.861L638.742 284.942C638.63 283.858 637.477 283.088 636.165 283.223Z" fill="#4D4D4D" stroke="#333333" stroke-width="0.5" stroke-linecap="round" stroke-linejoin="round"/>
<path d="M689.156 277.785L650.556 281.746C649.245 281.881 648.271 282.869 648.383 283.953L651.248 311.872C651.359 312.956 652.513 313.726 653.824 313.591L692.424 309.63C693.736 309.495 694.709 308.507 694.598 307.423L691.733 279.504C691.622 278.42 690.468 277.651 689.156 277.785Z" fill="#4D4D4D" stroke="#333333" stroke-width="0.5" stroke-linecap="round" stroke-linejoin="round"/>
<path d="M742.13 272.348L703.53 276.309C702.219 276.444 701.245 277.432 701.357 278.516L704.222 306.434C704.333 307.519 705.487 308.288 706.798 308.154L745.398 304.192C746.71 304.058 747.683 303.07 747.572 301.986L744.707 274.067C744.596 272.983 743.442 272.213 742.13 272.348Z" fill="#4D4D4D" stroke="#333333" stroke-width="0.5" stroke-linecap="round" stroke-linejoin="round"/>
<path d="M795.122 266.91L756.522 270.871C755.21 271.006 754.237 271.994 754.348 273.078L757.213 300.997C757.324 302.081 758.478 302.851 759.79 302.716L798.39 298.755C799.701 298.62 800.675 297.632 800.563 296.548L797.698 268.629C797.587 267.545 796.433 266.776 795.122 266.91Z" fill="#4D4D4D" stroke="#333333" stroke-width="0.5" stroke-linecap="round" stroke-linejoin="round"/>
<path d="M432.406 384.598L393.806 388.559C392.495 388.694 391.521 389.682 391.633 390.766L394.498 418.684C394.609 419.769 395.763 420.538 397.074 420.404L435.674 416.442C436.986 416.308 437.959 415.32 437.848 414.236L434.983 386.317C434.872 385.233 433.718 384.463 432.406 384.598Z" fill="#4D4D4D" stroke="#333333" stroke-width="0.5" stroke-linecap="round" stroke-linejoin="round"/>
<path d="M485.398 379.161L446.798 383.122C445.486 383.257 444.513 384.245 444.624 385.329L447.489 413.248C447.601 414.332 448.754 415.102 450.066 414.967L488.666 411.006C489.978 410.871 490.951 409.883 490.84 408.799L487.974 380.88C487.863 379.796 486.71 379.027 485.398 379.161Z" fill="#4D4D4D" stroke="#333333" stroke-width="0.5" stroke-linecap="round" stroke-linejoin="round"/>
<path d="M538.372 373.724L499.772 377.685C498.46 377.82 497.487 378.808 497.598 379.892L500.463 407.81C500.574 408.895 501.728 409.664 503.04 409.53L541.64 405.568C542.951 405.434 543.925 404.446 543.813 403.362L540.948 375.443C540.837 374.359 539.683 373.589 538.372 373.724Z" fill="#4D4D4D" stroke="#333333" stroke-width="0.5" stroke-linecap="round" stroke-linejoin="round"/>
<path d="M591.363 368.286L552.763 372.247C551.451 372.382 550.478 373.37 550.589 374.454L553.454 402.373C553.566 403.457 554.719 404.227 556.031 404.092L594.631 400.131C595.943 399.996 596.916 399.008 596.804 397.924L593.939 370.005C593.828 368.921 592.674 368.152 591.363 368.286Z" fill="#4D4D4D" stroke="#333333" stroke-width="0.5" stroke-linecap="round" stroke-linejoin="round"/>
<path d="M644.336 362.849L605.736 366.81C604.425 366.945 603.452 367.933 603.563 369.017L606.428 396.935C606.539 398.02 607.693 398.789 609.004 398.655L647.604 394.693C648.916 394.559 649.889 393.571 649.778 392.487L646.913 364.568C646.802 363.484 645.648 362.714 644.336 362.849Z" fill="#4D4D4D" stroke="#333333" stroke-width="0.5" stroke-linecap="round" stroke-linejoin="round"/>
<path d="M697.328 357.411L658.728 361.372C657.416 361.507 656.443 362.495 656.554 363.579L659.42 391.498C659.531 392.582 660.684 393.352 661.996 393.217L700.596 389.256C701.908 389.121 702.881 388.133 702.77 387.049L699.905 359.13C699.793 358.046 698.64 357.277 697.328 357.411Z" fill="#4D4D4D" stroke="#333333" stroke-width="0.5" stroke-linecap="round" stroke-linejoin="round"/>
<path d="M750.302 351.974L711.702 355.935C710.39 356.07 709.417 357.058 709.528 358.142L712.393 386.06C712.505 387.145 713.658 387.914 714.97 387.78L753.57 383.818C754.881 383.684 755.855 382.696 755.743 381.612L752.878 353.693C752.767 352.609 751.613 351.839 750.302 351.974Z" fill="#4D4D4D" stroke="#333333" stroke-width="0.5" stroke-linecap="round" stroke-linejoin="round"/>
<path d="M803.293 346.537L764.693 350.498C763.381 350.633 762.408 351.621 762.519 352.705L765.384 380.624C765.496 381.708 766.649 382.478 767.961 382.343L806.561 378.382C807.873 378.247 808.846 377.259 808.735 376.175L805.87 348.256C805.758 347.172 804.605 346.403 803.293 346.537Z" fill="#4D4D4D" stroke="#333333" stroke-width="0.5" stroke-linecap="round" stroke-linejoin="round"/>
<path d="M452.406 342.314L413.806 346.276C412.495 346.41 411.521 347.398 411.633 348.483L414.498 376.401C414.609 377.485 415.763 378.255 417.074 378.12L455.674 374.159C456.986 374.025 457.959 373.037 457.848 371.952L454.983 344.034C454.872 342.95 453.718 342.18 452.406 342.314Z" fill="#4D4D4D" stroke="#333333" stroke-width="0.5" stroke-linecap="round" stroke-linejoin="round"/>
<path d="M505.38 336.878L466.78 340.839C465.468 340.974 464.495 341.962 464.606 343.046L467.471 370.965C467.583 372.049 468.736 372.819 470.048 372.684L508.648 368.723C509.96 368.588 510.933 367.6 510.822 366.516L507.956 338.597C507.845 337.513 506.692 336.743 505.38 336.878Z" fill="#4D4D4D" stroke="#333333" stroke-width="0.5" stroke-linecap="round" stroke-linejoin="round"/>
<path d="M558.371 331.439L519.771 335.401C518.459 335.535 517.486 336.523 517.597 337.608L520.463 365.526C520.574 366.61 521.727 367.38 523.039 367.245L561.639 363.284C562.951 363.15 563.924 362.162 563.813 361.077L560.948 333.159C560.836 332.075 559.683 331.305 558.371 331.439Z" fill="#4D4D4D" stroke="#333333" stroke-width="0.5" stroke-linecap="round" stroke-linejoin="round"/>
<path d="M611.362 326.001L572.762 329.962C571.451 330.097 570.477 331.085 570.589 332.169L573.454 360.088C573.565 361.172 574.719 361.942 576.03 361.807L614.63 357.846C615.942 357.711 616.915 356.723 616.804 355.639L613.939 327.72C613.828 326.636 612.674 325.866 611.362 326.001Z" fill="#4D4D4D" stroke="#333333" stroke-width="0.5" stroke-linecap="round" stroke-linejoin="round"/>
<path d="M664.336 320.564L625.736 324.526C624.425 324.66 623.452 325.648 623.563 326.733L626.428 354.651C626.539 355.735 627.693 356.505 629.004 356.37L667.604 352.409C668.916 352.275 669.889 351.287 669.778 350.202L666.913 322.284C666.802 321.2 665.648 320.43 664.336 320.564Z" fill="#4D4D4D" stroke="#333333" stroke-width="0.5" stroke-linecap="round" stroke-linejoin="round"/>
<path d="M717.328 315.127L678.728 319.088C677.416 319.223 676.443 320.211 676.554 321.295L679.419 349.214C679.53 350.298 680.684 351.068 681.996 350.933L720.596 346.972C721.907 346.837 722.881 345.849 722.769 344.765L719.904 316.846C719.793 315.762 718.639 314.992 717.328 315.127Z" fill="#4D4D4D" stroke="#333333" stroke-width="0.5" stroke-linecap="round" stroke-linejoin="round"/>
<path d="M770.301 309.69L731.701 313.652C730.39 313.786 729.416 314.774 729.528 315.859L732.393 343.777C732.504 344.861 733.658 345.631 734.969 345.496L773.569 341.535C774.881 341.401 775.854 340.413 775.743 339.328L772.878 311.41C772.767 310.326 771.613 309.556 770.301 309.69Z" fill="#4D4D4D" stroke="#333333" stroke-width="0.5" stroke-linecap="round" stroke-linejoin="round"/>
<path d="M823.292 304.252L784.693 308.213C783.381 308.348 782.408 309.336 782.519 310.42L785.384 338.339C785.495 339.423 786.649 340.193 787.961 340.058L826.56 336.097C827.872 335.962 828.845 334.974 828.734 333.89L825.869 305.971C825.758 304.887 824.604 304.117 823.292 304.252Z" fill="#4D4D4D" stroke="#333333" stroke-width="0.5" stroke-linecap="round" stroke-linejoin="round"/>
<path d="M460.576 421.926L421.976 425.887C420.664 426.022 419.691 427.01 419.803 428.094L422.668 456.013C422.779 457.097 423.932 457.866 425.244 457.732L463.844 453.771C465.156 453.636 466.129 452.648 466.018 451.564L463.153 423.645C463.041 422.561 461.888 421.791 460.576 421.926Z" fill="#4D4D4D" stroke="#333333" stroke-width="0.5" stroke-linecap="round" stroke-linejoin="round"/>
<path d="M513.55 416.489L474.95 420.451C473.638 420.585 472.665 421.573 472.776 422.657L475.641 450.576C475.753 451.66 476.906 452.43 478.218 452.295L516.818 448.334C518.13 448.199 519.103 447.211 518.991 446.127L516.126 418.209C516.015 417.124 514.861 416.355 513.55 416.489Z" fill="#4D4D4D" stroke="#333333" stroke-width="0.5" stroke-linecap="round" stroke-linejoin="round"/>
<path d="M672.506 400.175L527.941 415.011C526.629 415.146 525.656 416.134 525.767 417.218L528.633 445.137C528.744 446.221 529.897 446.99 531.209 446.856L675.774 432.02C677.086 431.885 678.059 430.897 677.948 429.813L675.083 401.894C674.971 400.81 673.818 400.041 672.506 400.175Z" fill="#4D4D4D" stroke="#333333" stroke-width="0.5" stroke-linecap="round" stroke-linejoin="round"/>
<path d="M725.498 394.738L686.898 398.7C685.586 398.834 684.613 399.822 684.724 400.906L687.589 428.825C687.7 429.909 688.854 430.679 690.166 430.544L728.766 426.583C730.077 426.448 731.051 425.46 730.939 424.376L728.074 396.458C727.963 395.373 726.809 394.604 725.498 394.738Z" fill="#4D4D4D" stroke="#333333" stroke-width="0.5" stroke-linecap="round" stroke-linejoin="round"/>
<path d="M778.472 389.301L739.872 393.262C738.56 393.397 737.587 394.385 737.698 395.469L740.563 423.388C740.674 424.472 741.828 425.241 743.14 425.107L781.74 421.145C783.051 421.011 784.025 420.023 783.913 418.939L781.048 391.02C780.937 389.936 779.783 389.166 778.472 389.301Z" fill="#4D4D4D" stroke="#333333" stroke-width="0.5" stroke-linecap="round" stroke-linejoin="round"/>
<path d="M831.463 383.863L792.863 387.825C791.551 387.959 790.578 388.947 790.689 390.031L793.554 417.95C793.666 419.034 794.819 419.804 796.131 419.669L834.731 415.708C836.043 415.573 837.016 414.585 836.905 413.501L834.039 385.583C833.928 384.498 832.775 383.729 831.463 383.863Z" fill="#4D4D4D" stroke="#333333" stroke-width="0.5" stroke-linecap="round" stroke-linejoin="round"/>
<path d="M861.999 151.371H835.084V137.468H861.999V151.371Z" fill="url(#paint0_linear_935_51)"/>
<path d="M850.949 152.797H803V136.042H850.949V152.797Z" fill="#706464"/>
<path d="M857.365 149.054H855.048V145.489H857.365V149.054Z" fill="#434141"/>
<path d="M857.365 143.35H855.048V139.785H857.365V143.35Z" fill="#434141"/>
<path d="M671.53 0.144494L441.659 3.15852C435.585 3.23817 430.725 8.22718 430.804 14.3018L431.326 54.0833C431.406 60.1579 436.395 65.0178 442.469 64.9381L672.341 61.9241C678.415 61.8444 683.275 56.8554 683.195 50.7808L682.674 10.9993C682.594 4.92472 677.605 0.0648451 671.53 0.144494Z" fill="#9C9C9C"/>
<path d="M813.827 17.6732L299.871 24.4121L300.173 47.4101L814.128 40.6713L813.827 17.6732Z" fill="#C4C4C4"/>
<path d="M0 645.042L305.5 39.042H810L1202 552.042L0 645.042Z" fill="url(#paint1_linear_935_51)"/>
<path d="M934 394.042C952.778 394.042 968 366.731 968 333.042C968 299.353 952.778 272.042 934 272.042C915.222 272.042 900 299.353 900 333.042C900 366.731 915.222 394.042 934 394.042Z" fill="#C4C4C4"/>
<path d="M904 314.542C909.667 312.375 923.4 308.042 933 308.042C942.6 308.042 958 312.375 964.5 314.542" stroke="black"/>
<path d="M934 273.042V308.542" stroke="black"/>
<defs>
<linearGradient id="paint0_linear_935_51" x1="848.542" y1="151.371" x2="848.542" y2="137.468" gradientUnits="userSpaceOnUse">
<stop stop-color="#C4C4C4"/>
<stop offset="1" stop-color="#F5F5F5"/>
</linearGradient>
<linearGradient id="paint1_linear_935_51" x1="601" y1="39.042" x2="601" y2="645.042" gradientUnits="userSpaceOnUse">
<stop stop-color="#D5D1B5" stop-opacity="0.36"/>
<stop offset="1" stop-color="#C4C4C4" stop-opacity="0"/>
</linearGradient>
</defs>
</svg>
