<svg width="52" height="52" viewBox="0 0 52 52" fill="none" xmlns="http://www.w3.org/2000/svg">
<path d="M52 36.6806H36.7081V52H52V36.6806Z" fill="#ED8573"/>
<path d="M30.5838 36.6806H15.2919V52H30.5838V36.6806Z" fill="#F0975E"/>
<path d="M52 15.3195H36.7081V30.6389H52V15.3195Z" fill="#F0975E"/>
<path d="M30.5838 15.3195H15.2919V30.6389H30.5838V15.3195Z" fill="#F0975E"/>
<path fill-rule="evenodd" clip-rule="evenodd" d="M15.2919 0H9.18014V9.29011H0V15.3195H9.18014V30.6389H0V36.6682H9.18014V51.9877H15.2919V36.6806H30.5839V52H36.6956V36.6806H51.9875V30.6512H36.6956V15.3195H51.9875V9.29011H36.6956V0H30.5839V9.29011H15.2919V0ZM30.5839 30.6389V15.3195H15.2919V30.6389H30.5839Z" fill="#27181D"/>
</svg>
