<svg width="139" height="101" viewBox="0 0 139 101" fill="none" xmlns="http://www.w3.org/2000/svg">
<rect width="107" height="72" fill="#714A4F"/>
<path d="M44.2631 23.432V25.352H23.7911V23.432H32.8391V21.32H25.2551V14.24H42.7991V16.16H27.6311V19.4H43.0391V21.32H35.1911V23.432H44.2631ZM34.0151 27.056C36.7191 27.056 38.8951 27.352 40.5431 27.944C42.2071 28.536 43.0391 29.488 43.0391 30.8C43.0391 32.112 42.2071 33.064 40.5431 33.656C38.8791 34.264 36.7031 34.568 34.0151 34.568C31.3271 34.568 29.1511 34.264 27.4871 33.656C25.8231 33.064 24.9911 32.112 24.9911 30.8C24.9911 29.488 25.8151 28.536 27.4631 27.944C29.1271 27.352 31.3111 27.056 34.0151 27.056ZM34.0151 32.696C35.8871 32.696 37.4391 32.544 38.6711 32.24C39.9191 31.936 40.5431 31.456 40.5431 30.8C40.5431 30.16 39.9191 29.688 38.6711 29.384C37.4391 29.08 35.8871 28.928 34.0151 28.928C32.1431 28.928 30.5831 29.08 29.3351 29.384C28.1031 29.688 27.4871 30.16 27.4871 30.8C27.4871 31.456 28.1031 31.936 29.3351 32.24C30.5831 32.544 32.1431 32.696 34.0151 32.696ZM64.709 24.584H61.829V34.496H59.453V14H61.829V22.304H64.709V24.584ZM50.045 14.48C51.261 14.48 52.325 14.832 53.237 15.536C54.149 16.224 54.861 17.28 55.373 18.704C55.885 20.128 56.141 21.896 56.141 24.008C56.141 26.12 55.885 27.888 55.373 29.312C54.861 30.736 54.149 31.792 53.237 32.48C52.325 33.184 51.261 33.536 50.045 33.536C48.173 33.536 46.685 32.736 45.581 31.136C44.477 29.536 43.925 27.16 43.925 24.008C43.925 20.856 44.477 18.48 45.581 16.88C46.685 15.28 48.173 14.48 50.045 14.48ZM50.045 31.352C51.165 31.352 52.061 30.752 52.733 29.552C53.421 28.336 53.765 26.488 53.765 24.008C53.765 21.528 53.421 19.688 52.733 18.488C52.061 17.272 51.165 16.664 50.045 16.664C48.909 16.664 47.997 17.272 47.309 18.488C46.637 19.688 46.301 21.528 46.301 24.008C46.301 26.488 46.637 28.336 47.309 29.552C47.997 30.752 48.909 31.352 50.045 31.352ZM79.515 14H81.891V34.496H79.515V14ZM63.939 22.76H73.107V16.928H63.891V14.744H75.483V24.944H66.315V31.088H72.315C73.291 31.088 74.259 31 75.219 30.824C76.195 30.648 76.995 30.408 77.619 30.104V32.288C77.011 32.592 76.219 32.832 75.243 33.008C74.267 33.184 73.267 33.272 72.243 33.272H63.939V22.76ZM32.9568 54.28V56.512H12.4848V54.28H21.4848V49.36H13.8288V37.744H31.5888V49.36H23.9088V54.28H32.9568ZM16.2048 47.152H29.2128V39.976H16.2048V47.152ZM51.0988 37V47.656H48.7228V37H51.0988ZM39.3388 43.624C38.6028 44.696 37.6428 45.568 36.4588 46.24C35.2908 46.896 33.9628 47.296 32.4748 47.44V45.328C34.1548 45.104 35.5068 44.472 36.5308 43.432C37.5708 42.392 38.1708 41.096 38.3308 39.544H32.7388V37.528H46.0108V39.544H40.7308C40.6828 40.328 40.5228 41.08 40.2508 41.8L46.6828 45.472L45.5548 47.248L39.3388 43.624ZM48.7708 48.544H51.0988V57.232H33.7228V48.544H36.0508V50.824H48.7708V48.544ZM48.7708 55.288V52.744H36.0508V55.288H48.7708ZM76.0153 41.872V44.152H73.1353V52.216H70.7593V37H73.1353V41.872H76.0153ZM67.3513 43.168C67.3513 44.32 67.0873 45.344 66.5593 46.24C66.0473 47.136 65.3113 47.84 64.3513 48.352C63.3913 48.864 62.2633 49.12 60.9673 49.12C59.6713 49.12 58.5353 48.864 57.5593 48.352C56.5993 47.84 55.8553 47.136 55.3273 46.24C54.8153 45.328 54.5593 44.304 54.5593 43.168C54.5593 42.032 54.8153 41.016 55.3273 40.12C55.8553 39.208 56.5993 38.496 57.5593 37.984C58.5353 37.472 59.6713 37.216 60.9673 37.216C62.2633 37.216 63.3913 37.472 64.3513 37.984C65.3113 38.496 66.0473 39.2 66.5593 40.096C67.0873 40.992 67.3513 42.016 67.3513 43.168ZM56.9353 43.168C56.9353 44.368 57.3033 45.328 58.0393 46.048C58.7753 46.752 59.7513 47.104 60.9673 47.104C62.1833 47.104 63.1513 46.752 63.8713 46.048C64.6073 45.328 64.9753 44.368 64.9753 43.168C64.9753 41.968 64.6073 41.008 63.8713 40.288C63.1353 39.568 62.1673 39.208 60.9673 39.208C59.7513 39.208 58.7753 39.568 58.0393 40.288C57.3033 41.008 56.9353 41.968 56.9353 43.168ZM58.6633 55.072H73.6873V57.232H56.2393V50.536H58.6633V55.072ZM93.7732 37V57.496H91.5172V47.488H88.1812V57.136H85.9252V37.12H88.1812V45.256H91.5172V37H93.7732ZM79.6612 54.16C80.5252 54.16 81.3732 54.088 82.2052 53.944C83.0532 53.8 83.7972 53.608 84.4372 53.368V55.48C83.8452 55.736 83.0932 55.928 82.1812 56.056C81.2852 56.2 80.3572 56.272 79.3972 56.272H74.6932V37.696H77.0212V54.16H79.6612Z" fill="#FEDC97"/>
<path d="M100.221 88.0387L97.8764 47.0671L131.974 69.9045L120.129 76.6688L127.156 88.9719L123.124 91.2746L119.091 93.5774L112.065 81.2744L100.221 88.0387Z" fill="white" stroke="#FEDC97" stroke-width="3"/>
</svg>
